grf
version=1
nRows=44
nColumns=19
inDegrees=yes
endheader
time	ground_force_2_vx	ground_force_2_vy	ground_force_2_vz	ground_force_2_px	ground_force_2_py	ground_force_2_pz	ground_moment_2_mx	ground_moment_2_my	ground_moment_2_mz	ground_force_3_vx	ground_force_3_vy	ground_force_3_vz	ground_force_3_px	ground_force_3_py	ground_force_3_pz	ground_moment_3_mx	ground_moment_3_my	ground_moment_3_mz
2.127500	-108.677259	509.692347	-0.689575	0.285008	0.000000	-0.220038	0.000000	-0.934093	-0.000000	0.000000	0.000000	0.000000	0.000000	0.000000	0.000000	0.000000	0.000000	0.000000
2.128333	-109.708425	514.159295	-1.133760	0.285266	0.000000	-0.220254	0.000000	-0.949771	-0.000000	0.000000	0.000000	0.000000	0.000000	0.000000	0.000000	0.000000	0.000000	0.000000
2.129167	-110.721081	518.612357	-1.581379	0.285807	0.000000	-0.219873	0.000000	-0.966491	-0.000000	0.000000	0.000000	0.000000	0.000000	0.000000	0.000000	0.000000	0.000000	0.000000
2.130000	-111.715539	523.054551	-2.031714	0.285663	0.000000	-0.220027	0.000000	-0.984354	-0.000000	0.000000	0.000000	0.000000	0.000000	0.000000	0.000000	0.000000	0.000000	0.000000
2.130833	-112.691875	527.488588	-2.484231	0.285582	0.000000	-0.219986	0.000000	-1.003421	-0.000000	0.000000	0.000000	0.000000	0.000000	0.000000	0.000000	0.000000	0.000000	0.000000
2.131667	-113.650076	531.916633	-2.938375	0.285602	0.000000	-0.219939	0.000000	-1.023687	-0.000000	0.000000	0.000000	0.000000	0.000000	0.000000	0.000000	0.000000	0.000000	0.000000
2.132500	-114.590028	536.339880	-3.393525	0.285657	0.000000	-0.220069	0.000000	-1.045113	-0.000000	0.000000	0.000000	0.000000	0.000000	0.000000	0.000000	0.000000	0.000000	0.000000
2.133333	-115.511382	540.759087	-3.849175	0.285736	0.000000	-0.220273	0.000000	-1.067659	-0.000000	0.000000	0.000000	0.000000	0.000000	0.000000	0.000000	0.000000	0.000000	0.000000
2.134167	-116.413889	545.175253	-4.305095	0.285754	0.000000	-0.220237	0.000000	-1.091276	-0.000000	0.000000	0.000000	0.000000	0.000000	0.000000	0.000000	0.000000	0.000000	0.000000
2.135000	-117.297334	549.587997	-4.761224	0.285897	0.000000	-0.220183	0.000000	-1.115851	-0.000000	0.000000	0.000000	0.000000	0.000000	0.000000	0.000000	0.000000	0.000000	0.000000
2.135833	-118.161402	553.996185	-5.217489	0.285894	0.000000	-0.220141	0.000000	-1.141232	-0.000000	0.000000	0.000000	0.000000	0.000000	0.000000	0.000000	0.000000	0.000000	0.000000
2.136667	-119.005951	558.400383	-5.674116	0.285935	0.000000	-0.220244	0.000000	-1.167284	-0.000000	0.000000	0.000000	0.000000	0.000000	0.000000	0.000000	0.000000	0.000000	0.000000
2.137500	-119.830832	562.801780	-6.131683	0.286041	0.000000	-0.220281	0.000000	-1.193872	-0.000000	0.000000	0.000000	0.000000	0.000000	0.000000	0.000000	0.000000	0.000000	0.000000
2.138333	-120.635793	567.201156	-6.590708	0.286143	0.000000	-0.220229	0.000000	-1.220888	-0.000000	0.000000	0.000000	0.000000	0.000000	0.000000	0.000000	0.000000	0.000000	0.000000
2.139167	-121.420627	571.598424	-7.051669	0.286175	0.000000	-0.220438	0.000000	-1.248243	-0.000000	0.000000	0.000000	0.000000	0.000000	0.000000	0.000000	0.000000	0.000000	0.000000
2.140000	-122.185162	575.993130	-7.515074	0.286170	0.000000	-0.220374	0.000000	-1.275790	-0.000000	0.000000	0.000000	0.000000	0.000000	0.000000	0.000000	0.000000	0.000000	0.000000
2.140833	-122.929300	580.385812	-7.981368	0.286178	0.000000	-0.220324	0.000000	-1.303360	-0.000000	0.000000	0.000000	0.000000	0.000000	0.000000	0.000000	0.000000	0.000000	0.000000
2.141667	-123.653051	584.776679	-8.451071	0.286154	0.000000	-0.220393	0.000000	-1.330850	-0.000000	0.000000	0.000000	0.000000	0.000000	0.000000	0.000000	0.000000	0.000000	0.000000
2.142500	-124.356464	589.164927	-8.924720	0.286305	0.000000	-0.220282	0.000000	-1.358184	-0.000000	0.000000	0.000000	0.000000	0.000000	0.000000	0.000000	0.000000	0.000000	0.000000
2.143333	-125.039601	593.551230	-9.402639	0.286511	0.000000	-0.220139	0.000000	-1.385269	-0.000000	0.000000	0.000000	0.000000	0.000000	0.000000	0.000000	0.000000	0.000000	0.000000
2.144167	-125.702591	597.937871	-9.884821	0.286522	0.000000	-0.220212	0.000000	-1.412048	-0.000000	0.000000	0.000000	0.000000	0.000000	0.000000	0.000000	0.000000	0.000000	0.000000
2.145000	-126.345328	602.325644	-10.371088	0.286396	0.000000	-0.220195	0.000000	-1.438470	-0.000000	0.000000	0.000000	0.000000	0.000000	0.000000	0.000000	0.000000	0.000000	0.000000
2.145833	-126.967516	606.713684	-10.861117	0.286698	0.000000	-0.220046	0.000000	-1.464471	-0.000000	0.000000	0.000000	0.000000	0.000000	0.000000	0.000000	0.000000	0.000000	0.000000
2.146667	-127.569135	611.101103	-11.354396	0.286460	0.000000	-0.220334	0.000000	-1.490040	-0.000000	0.000000	0.000000	0.000000	0.000000	0.000000	0.000000	0.000000	0.000000	0.000000
2.147500	-128.150354	615.487548	-11.850525	0.286337	0.000000	-0.220424	0.000000	-1.515200	-0.000000	0.000000	0.000000	0.000000	0.000000	0.000000	0.000000	0.000000	0.000000	0.000000
2.148333	-128.711509	619.872022	-12.349009	0.286511	0.000000	-0.220353	0.000000	-1.539966	-0.000000	0.000000	0.000000	0.000000	0.000000	0.000000	0.000000	0.000000	0.000000	0.000000
2.149167	-129.252916	624.252875	-12.849042	0.286787	0.000000	-0.220330	0.000000	-1.564367	-0.000000	0.000000	0.000000	0.000000	0.000000	0.000000	0.000000	0.000000	0.000000	0.000000
2.150000	-129.774800	628.629485	-13.349665	0.286813	0.000000	-0.220429	0.000000	-1.588421	-0.000000	0.000000	0.000000	0.000000	0.000000	0.000000	0.000000	0.000000	0.000000	0.000000
2.150833	-130.277411	633.000814	-13.849851	0.286560	0.000000	-0.220307	0.000000	-1.612142	-0.000000	0.000000	0.000000	0.000000	0.000000	0.000000	0.000000	0.000000	0.000000	0.000000
2.151667	-130.760689	637.364249	-14.348466	0.286832	0.000000	-0.220440	0.000000	-1.635556	-0.000000	0.000000	0.000000	0.000000	0.000000	0.000000	0.000000	0.000000	0.000000	0.000000
2.152500	-131.224535	641.717314	-14.844312	0.286899	0.000000	-0.220499	0.000000	-1.658706	-0.000000	0.000000	0.000000	0.000000	0.000000	0.000000	0.000000	0.000000	0.000000	0.000000
2.153333	-131.669305	646.058175	-15.336359	0.286871	0.000000	-0.220497	0.000000	-1.681688	-0.000000	0.000000	0.000000	0.000000	0.000000	0.000000	0.000000	0.000000	0.000000	0.000000
2.154167	-132.095258	650.384421	-15.823675	0.286842	0.000000	-0.220612	0.000000	-1.704614	-0.000000	0.000000	0.000000	0.000000	0.000000	0.000000	0.000000	0.000000	0.000000	0.000000
2.155000	-132.502253	654.692640	-16.305362	0.286805	0.000000	-0.220781	0.000000	-1.727508	-0.000000	0.000000	0.000000	0.000000	0.000000	0.000000	0.000000	0.000000	0.000000	0.000000
2.155833	-132.890375	658.979709	-16.780421	0.286702	0.000000	-0.220575	0.000000	-1.750363	-0.000000	0.000000	0.000000	0.000000	0.000000	0.000000	0.000000	0.000000	0.000000	0.000000
2.156667	-133.259954	663.243104	-17.247768	0.287032	0.000000	-0.220810	0.000000	-1.773202	-0.000000	0.000000	0.000000	0.000000	0.000000	0.000000	0.000000	0.000000	0.000000	0.000000
2.157500	-133.611167	667.480089	-17.706765	0.287096	0.000000	-0.220649	0.000000	-1.796067	-0.000000	0.000000	0.000000	0.000000	0.000000	0.000000	0.000000	0.000000	0.000000	0.000000
2.158333	-133.943980	671.688315	-18.156954	0.287025	0.000000	-0.220877	0.000000	-1.818970	-0.000000	0.000000	0.000000	0.000000	0.000000	0.000000	0.000000	0.000000	0.000000	0.000000
2.159167	-134.258391	675.865895	-18.597534	0.286972	0.000000	-0.220808	0.000000	-1.841878	-0.000000	0.000000	0.000000	0.000000	0.000000	0.000000	0.000000	0.000000	0.000000	0.000000
2.160000	-134.554476	680.010893	-19.027933	0.287084	0.000000	-0.220550	0.000000	-1.864805	-0.000000	0.000000	0.000000	0.000000	0.000000	0.000000	0.000000	0.000000	0.000000	0.000000
2.160833	-134.832127	684.121345	-19.447923	0.287293	0.000000	-0.220637	-0.000000	-1.887799	-0.000000	0.000000	0.000000	0.000000	0.000000	0.000000	0.000000	0.000000	0.000000	0.000000
2.161667	-135.091029	688.195013	-19.857158	0.287056	0.000000	-0.220625	-0.000000	-1.910873	-0.000000	0.000000	0.000000	0.000000	0.000000	0.000000	0.000000	0.000000	0.000000	0.000000
2.162500	-135.331024	692.229434	-20.255440	0.287237	0.000000	-0.220697	-0.000000	-1.933998	-0.000000	0.000000	0.000000	0.000000	0.000000	0.000000	0.000000	0.000000	0.000000	0.000000
2.163333	-135.552222	696.222265	-20.642930	0.287510	0.000000	-0.220625	-0.000000	-1.957113	-0.000000	0.000000	0.000000	0.000000	0.000000	0.000000	0.000000	0.000000	0.000000	0.000000
